<svg width="576" height="140" viewBox="0 0 576 140" fill="none" xmlns="http://www.w3.org/2000/svg">
<path d="M187.42 90L177.3 13H191.71L199.19 79.88H201.17L210.85 13H235.93L245.61 79.88H247.59L255.07 13H269.48L259.36 90H234.28L224.38 21.58H222.4L212.5 90H187.42ZM275.028 90V13H288.888V42.15H290.868C291.455 40.9767 292.371 39.8033 293.618 38.63C294.865 37.4567 296.515 36.5033 298.568 35.77C300.695 34.9633 303.371 34.56 306.598 34.56C310.851 34.56 314.555 35.55 317.708 37.53C320.935 39.4367 323.428 42.1133 325.188 45.56C326.948 48.9333 327.828 52.8933 327.828 57.44V90H313.968V58.54C313.968 54.4333 312.941 51.3533 310.888 49.3C308.908 47.2467 306.048 46.22 302.308 46.22C298.055 46.22 294.755 47.65 292.408 50.51C290.061 53.2967 288.888 57.22 288.888 62.28V90H275.028ZM363.271 91.54C357.845 91.54 352.968 90.44 348.641 88.24C344.315 86.04 340.905 82.85 338.411 78.67C335.918 74.49 334.671 69.4667 334.671 63.6V61.84C334.671 55.9733 335.918 50.95 338.411 46.77C340.905 42.59 344.315 39.4 348.641 37.2C352.968 35 357.845 33.9 363.271 33.9C368.698 33.9 373.575 35 377.901 37.2C382.228 39.4 385.638 42.59 388.131 46.77C390.625 50.95 391.871 55.9733 391.871 61.84V63.6C391.871 69.4667 390.625 74.49 388.131 78.67C385.638 82.85 382.228 86.04 377.901 88.24C373.575 90.44 368.698 91.54 363.271 91.54ZM363.271 79.22C367.525 79.22 371.045 77.8633 373.831 75.15C376.618 72.3633 378.011 68.4033 378.011 63.27V62.17C378.011 57.0367 376.618 53.1133 373.831 50.4C371.118 47.6133 367.598 46.22 363.271 46.22C359.018 46.22 355.498 47.6133 352.711 50.4C349.925 53.1133 348.531 57.0367 348.531 62.17V63.27C348.531 68.4033 349.925 72.3633 352.711 75.15C355.498 77.8633 359.018 79.22 363.271 79.22ZM425.125 91.54C419.698 91.54 414.822 90.44 410.495 88.24C406.168 86.04 402.758 82.85 400.265 78.67C397.772 74.49 396.525 69.4667 396.525 63.6V61.84C396.525 55.9733 397.772 50.95 400.265 46.77C402.758 42.59 406.168 39.4 410.495 37.2C414.822 35 419.698 33.9 425.125 33.9C430.552 33.9 435.428 35 439.755 37.2C444.082 39.4 447.492 42.59 449.985 46.77C452.478 50.95 453.725 55.9733 453.725 61.84V63.6C453.725 69.4667 452.478 74.49 449.985 78.67C447.492 82.85 444.082 86.04 439.755 88.24C435.428 90.44 430.552 91.54 425.125 91.54ZM425.125 79.22C429.378 79.22 432.898 77.8633 435.685 75.15C438.472 72.3633 439.865 68.4033 439.865 63.27V62.17C439.865 57.0367 438.472 53.1133 435.685 50.4C432.972 47.6133 429.452 46.22 425.125 46.22C420.872 46.22 417.352 47.6133 414.565 50.4C411.778 53.1133 410.385 57.0367 410.385 62.17V63.27C410.385 68.4033 411.778 72.3633 414.565 75.15C417.352 77.8633 420.872 79.22 425.125 79.22ZM461.018 112V35.44H474.658V42.04H476.638C477.885 39.9133 479.828 38.0433 482.468 36.43C485.108 34.7433 488.885 33.9 493.798 33.9C498.198 33.9 502.268 35 506.008 37.2C509.748 39.3267 512.755 42.48 515.028 46.66C517.302 50.84 518.438 55.9 518.438 61.84V63.6C518.438 69.54 517.302 74.6 515.028 78.78C512.755 82.96 509.748 86.15 506.008 88.35C502.268 90.4767 498.198 91.54 493.798 91.54C490.498 91.54 487.712 91.1367 485.438 90.33C483.238 89.5967 481.442 88.6433 480.048 87.47C478.728 86.2233 477.665 84.9767 476.858 83.73H474.878V112H461.018ZM489.618 79.44C493.945 79.44 497.502 78.0833 500.288 75.37C503.148 72.5833 504.578 68.55 504.578 63.27V62.17C504.578 56.89 503.148 52.8933 500.288 50.18C497.428 47.3933 493.872 46 489.618 46C485.365 46 481.808 47.3933 478.948 50.18C476.088 52.8933 474.658 56.89 474.658 62.17V63.27C474.658 68.55 476.088 72.5833 478.948 75.37C481.808 78.0833 485.365 79.44 489.618 79.44ZM548.325 91.54C541.212 91.54 535.382 90 530.835 86.92C526.288 83.84 523.538 79.44 522.585 73.72L535.345 70.42C535.858 72.9867 536.702 75.0033 537.875 76.47C539.122 77.9367 540.625 79 542.385 79.66C544.218 80.2467 546.198 80.54 548.325 80.54C551.552 80.54 553.935 79.99 555.475 78.89C557.015 77.7167 557.785 76.2867 557.785 74.6C557.785 72.9133 557.052 71.63 555.585 70.75C554.118 69.7967 551.772 69.0267 548.545 68.44L545.465 67.89C541.652 67.1567 538.168 66.1667 535.015 64.92C531.862 63.6 529.332 61.8033 527.425 59.53C525.518 57.2567 524.565 54.3233 524.565 50.73C524.565 45.3033 526.545 41.16 530.505 38.3C534.465 35.3667 539.672 33.9 546.125 33.9C552.212 33.9 557.272 35.2567 561.305 37.97C565.338 40.6833 567.978 44.24 569.225 48.64L556.355 52.6C555.768 49.8133 554.558 47.8333 552.725 46.66C550.965 45.4867 548.765 44.9 546.125 44.9C543.485 44.9 541.468 45.3767 540.075 46.33C538.682 47.21 537.985 48.4567 537.985 50.07C537.985 51.83 538.718 53.15 540.185 54.03C541.652 54.8367 543.632 55.46 546.125 55.9L549.205 56.45C553.312 57.1833 557.015 58.1733 560.315 59.42C563.688 60.5933 566.328 62.3167 568.235 64.59C570.215 66.79 571.205 69.7967 571.205 73.61C571.205 79.33 569.115 83.7667 564.935 86.92C560.828 90 555.292 91.54 548.325 91.54Z" fill="white"/>
<path d="M175.75 126V113.6H178.85V114.95H179.3C179.517 114.533 179.875 114.175 180.375 113.875C180.875 113.558 181.533 113.4 182.35 113.4C183.233 113.4 183.942 113.575 184.475 113.925C185.008 114.258 185.417 114.7 185.7 115.25H186.15C186.433 114.717 186.833 114.275 187.35 113.925C187.867 113.575 188.6 113.4 189.55 113.4C190.317 113.4 191.008 113.567 191.625 113.9C192.258 114.217 192.758 114.708 193.125 115.375C193.508 116.025 193.7 116.85 193.7 117.85V126H190.55V118.075C190.55 117.392 190.375 116.883 190.025 116.55C189.675 116.2 189.183 116.025 188.55 116.025C187.833 116.025 187.275 116.258 186.875 116.725C186.492 117.175 186.3 117.825 186.3 118.675V126H183.15V118.075C183.15 117.392 182.975 116.883 182.625 116.55C182.275 116.2 181.783 116.025 181.15 116.025C180.433 116.025 179.875 116.258 179.475 116.725C179.092 117.175 178.9 117.825 178.9 118.675V126H175.75ZM199.688 126.35C198.805 126.35 198.013 126.2 197.313 125.9C196.613 125.583 196.055 125.133 195.638 124.55C195.238 123.95 195.038 123.225 195.038 122.375C195.038 121.525 195.238 120.817 195.638 120.25C196.055 119.667 196.621 119.233 197.338 118.95C198.071 118.65 198.905 118.5 199.838 118.5H203.238V117.8C203.238 117.217 203.055 116.742 202.688 116.375C202.321 115.992 201.738 115.8 200.938 115.8C200.155 115.8 199.571 115.983 199.188 116.35C198.805 116.7 198.555 117.158 198.438 117.725L195.538 116.75C195.738 116.117 196.055 115.542 196.488 115.025C196.938 114.492 197.53 114.067 198.263 113.75C199.013 113.417 199.921 113.25 200.988 113.25C202.621 113.25 203.913 113.658 204.863 114.475C205.813 115.292 206.288 116.475 206.288 118.025V122.65C206.288 123.15 206.521 123.4 206.988 123.4H207.988V126H205.888C205.271 126 204.763 125.85 204.363 125.55C203.963 125.25 203.763 124.85 203.763 124.35V124.325H203.288C203.221 124.525 203.071 124.792 202.838 125.125C202.605 125.442 202.238 125.725 201.738 125.975C201.238 126.225 200.555 126.35 199.688 126.35ZM200.238 123.8C201.121 123.8 201.838 123.558 202.388 123.075C202.955 122.575 203.238 121.917 203.238 121.1V120.85H200.063C199.48 120.85 199.021 120.975 198.688 121.225C198.355 121.475 198.188 121.825 198.188 122.275C198.188 122.725 198.363 123.092 198.713 123.375C199.063 123.658 199.571 123.8 200.238 123.8ZM213.797 126.35C212.814 126.35 211.889 126.108 211.022 125.625C210.172 125.125 209.489 124.4 208.972 123.45C208.455 122.5 208.197 121.35 208.197 120V119.6C208.197 118.25 208.455 117.1 208.972 116.15C209.489 115.2 210.172 114.483 211.022 114C211.872 113.5 212.797 113.25 213.797 113.25C214.547 113.25 215.172 113.342 215.672 113.525C216.189 113.692 216.605 113.908 216.922 114.175C217.239 114.442 217.48 114.725 217.647 115.025H218.097V108.5H221.247V126H218.147V124.5H217.697C217.414 124.967 216.972 125.392 216.372 125.775C215.789 126.158 214.93 126.35 213.797 126.35ZM214.747 123.6C215.714 123.6 216.522 123.292 217.172 122.675C217.822 122.042 218.147 121.125 218.147 119.925V119.675C218.147 118.475 217.822 117.567 217.172 116.95C216.539 116.317 215.73 116 214.747 116C213.78 116 212.972 116.317 212.322 116.95C211.672 117.567 211.347 118.475 211.347 119.675V119.925C211.347 121.125 211.672 122.042 212.322 122.675C212.972 123.292 213.78 123.6 214.747 123.6ZM229.139 126.35C227.906 126.35 226.814 126.092 225.864 125.575C224.931 125.042 224.198 124.3 223.664 123.35C223.148 122.383 222.889 121.25 222.889 119.95V119.65C222.889 118.35 223.148 117.225 223.664 116.275C224.181 115.308 224.906 114.567 225.839 114.05C226.773 113.517 227.856 113.25 229.089 113.25C230.306 113.25 231.364 113.525 232.264 114.075C233.164 114.608 233.864 115.358 234.364 116.325C234.864 117.275 235.114 118.383 235.114 119.65V120.725H226.089C226.123 121.575 226.439 122.267 227.039 122.8C227.639 123.333 228.373 123.6 229.239 123.6C230.123 123.6 230.773 123.408 231.189 123.025C231.606 122.642 231.923 122.217 232.139 121.75L234.714 123.1C234.481 123.533 234.139 124.008 233.689 124.525C233.256 125.025 232.673 125.458 231.939 125.825C231.206 126.175 230.273 126.35 229.139 126.35ZM226.114 118.375H231.914C231.848 117.658 231.556 117.083 231.039 116.65C230.539 116.217 229.881 116 229.064 116C228.214 116 227.539 116.217 227.039 116.65C226.539 117.083 226.231 117.658 226.114 118.375ZM249.216 126.35C248.099 126.35 247.241 126.158 246.641 125.775C246.041 125.392 245.599 124.967 245.316 124.5H244.866V126H241.766V108.5H244.916V115.025H245.366C245.549 114.725 245.791 114.442 246.091 114.175C246.407 113.908 246.816 113.692 247.316 113.525C247.832 113.342 248.466 113.25 249.216 113.25C250.216 113.25 251.141 113.5 251.991 114C252.841 114.483 253.524 115.2 254.041 116.15C254.557 117.1 254.816 118.25 254.816 119.6V120C254.816 121.35 254.557 122.5 254.041 123.45C253.524 124.4 252.841 125.125 251.991 125.625C251.141 126.108 250.216 126.35 249.216 126.35ZM248.266 123.6C249.232 123.6 250.041 123.292 250.691 122.675C251.341 122.042 251.666 121.125 251.666 119.925V119.675C251.666 118.475 251.341 117.567 250.691 116.95C250.057 116.317 249.249 116 248.266 116C247.299 116 246.491 116.317 245.841 116.95C245.191 117.567 244.866 118.475 244.866 119.675V119.925C244.866 121.125 245.191 122.042 245.841 122.675C246.491 123.292 247.299 123.6 248.266 123.6ZM257.808 131V128.25H264.558C265.025 128.25 265.258 128 265.258 127.5V124.375H264.808C264.675 124.658 264.466 124.942 264.183 125.225C263.9 125.508 263.516 125.742 263.033 125.925C262.55 126.108 261.933 126.2 261.183 126.2C260.216 126.2 259.366 125.983 258.633 125.55C257.916 125.1 257.358 124.483 256.958 123.7C256.558 122.917 256.358 122.017 256.358 121V113.6H259.508V120.75C259.508 121.683 259.733 122.383 260.183 122.85C260.65 123.317 261.308 123.55 262.158 123.55C263.125 123.55 263.875 123.233 264.408 122.6C264.941 121.95 265.208 121.05 265.208 119.9V113.6H268.358V128.2C268.358 129.05 268.108 129.725 267.608 130.225C267.108 130.742 266.441 131 265.608 131H257.808ZM283.161 126.35C282.044 126.35 281.186 126.158 280.586 125.775C279.986 125.392 279.544 124.967 279.261 124.5H278.811V126H275.711V108.5H278.861V115.025H279.311C279.494 114.725 279.736 114.442 280.036 114.175C280.353 113.908 280.761 113.692 281.261 113.525C281.778 113.342 282.411 113.25 283.161 113.25C284.161 113.25 285.086 113.5 285.936 114C286.786 114.483 287.469 115.2 287.986 116.15C288.503 117.1 288.761 118.25 288.761 119.6V120C288.761 121.35 288.503 122.5 287.986 123.45C287.469 124.4 286.786 125.125 285.936 125.625C285.086 126.108 284.161 126.35 283.161 126.35ZM282.211 123.6C283.178 123.6 283.986 123.292 284.636 122.675C285.286 122.042 285.611 121.125 285.611 119.925V119.675C285.611 118.475 285.286 117.567 284.636 116.95C284.003 116.317 283.194 116 282.211 116C281.244 116 280.436 116.317 279.786 116.95C279.136 117.567 278.811 118.475 278.811 119.675V119.925C278.811 121.125 279.136 122.042 279.786 122.675C280.436 123.292 281.244 123.6 282.211 123.6ZM296.303 126.35C295.07 126.35 293.962 126.1 292.978 125.6C291.995 125.1 291.22 124.375 290.653 123.425C290.087 122.475 289.803 121.333 289.803 120V119.6C289.803 118.267 290.087 117.125 290.653 116.175C291.22 115.225 291.995 114.5 292.978 114C293.962 113.5 295.07 113.25 296.303 113.25C297.537 113.25 298.645 113.5 299.628 114C300.612 114.5 301.387 115.225 301.953 116.175C302.52 117.125 302.803 118.267 302.803 119.6V120C302.803 121.333 302.52 122.475 301.953 123.425C301.387 124.375 300.612 125.1 299.628 125.6C298.645 126.1 297.537 126.35 296.303 126.35ZM296.303 123.55C297.27 123.55 298.07 123.242 298.703 122.625C299.337 121.992 299.653 121.092 299.653 119.925V119.675C299.653 118.508 299.337 117.617 298.703 117C298.087 116.367 297.287 116.05 296.303 116.05C295.337 116.05 294.537 116.367 293.903 117C293.27 117.617 292.953 118.508 292.953 119.675V119.925C292.953 121.092 293.27 121.992 293.903 122.625C294.537 123.242 295.337 123.55 296.303 123.55ZM304.461 126V113.6H307.561V114.95H308.011C308.228 114.533 308.586 114.175 309.086 113.875C309.586 113.558 310.244 113.4 311.061 113.4C311.944 113.4 312.653 113.575 313.186 113.925C313.719 114.258 314.128 114.7 314.411 115.25H314.861C315.144 114.717 315.544 114.275 316.061 113.925C316.578 113.575 317.311 113.4 318.261 113.4C319.028 113.4 319.719 113.567 320.336 113.9C320.969 114.217 321.469 114.708 321.836 115.375C322.219 116.025 322.411 116.85 322.411 117.85V126H319.261V118.075C319.261 117.392 319.086 116.883 318.736 116.55C318.386 116.2 317.894 116.025 317.261 116.025C316.544 116.025 315.986 116.258 315.586 116.725C315.203 117.175 315.011 117.825 315.011 118.675V126H311.861V118.075C311.861 117.392 311.686 116.883 311.336 116.55C310.986 116.2 310.494 116.025 309.861 116.025C309.144 116.025 308.586 116.258 308.186 116.725C307.803 117.175 307.611 117.825 307.611 118.675V126H304.461ZM331.999 126.35C330.882 126.35 330.024 126.158 329.424 125.775C328.824 125.392 328.382 124.967 328.099 124.5H327.649V126H324.549V108.5H327.699V115.025H328.149C328.332 114.725 328.574 114.442 328.874 114.175C329.19 113.908 329.599 113.692 330.099 113.525C330.615 113.342 331.249 113.25 331.999 113.25C332.999 113.25 333.924 113.5 334.774 114C335.624 114.483 336.307 115.2 336.824 116.15C337.34 117.1 337.599 118.25 337.599 119.6V120C337.599 121.35 337.34 122.5 336.824 123.45C336.307 124.4 335.624 125.125 334.774 125.625C333.924 126.108 332.999 126.35 331.999 126.35ZM331.049 123.6C332.015 123.6 332.824 123.292 333.474 122.675C334.124 122.042 334.449 121.125 334.449 119.925V119.675C334.449 118.475 334.124 117.567 333.474 116.95C332.84 116.317 332.032 116 331.049 116C330.082 116 329.274 116.317 328.624 116.95C327.974 117.567 327.649 118.475 327.649 119.675V119.925C327.649 121.125 327.974 122.042 328.624 122.675C329.274 123.292 330.082 123.6 331.049 123.6ZM339.241 126V113.6H342.391V126H339.241ZM340.816 112.15C340.25 112.15 339.766 111.967 339.366 111.6C338.983 111.233 338.791 110.75 338.791 110.15C338.791 109.55 338.983 109.067 339.366 108.7C339.766 108.333 340.25 108.15 340.816 108.15C341.4 108.15 341.883 108.333 342.266 108.7C342.65 109.067 342.841 109.55 342.841 110.15C342.841 110.75 342.65 111.233 342.266 111.6C341.883 111.967 341.4 112.15 340.816 112.15ZM344.032 119.85V119.45C344.032 118.15 344.29 117.042 344.807 116.125C345.324 115.192 346.007 114.483 346.857 114C347.724 113.5 348.665 113.25 349.682 113.25C350.815 113.25 351.674 113.45 352.257 113.85C352.84 114.25 353.265 114.667 353.532 115.1H353.982V113.6H357.082V128.2C357.082 129.05 356.832 129.725 356.332 130.225C355.832 130.742 355.165 131 354.332 131H346.032V128.25H353.232C353.699 128.25 353.932 128 353.932 127.5V124.275H353.482C353.315 124.542 353.082 124.817 352.782 125.1C352.482 125.367 352.082 125.592 351.582 125.775C351.082 125.958 350.449 126.05 349.682 126.05C348.665 126.05 347.724 125.808 346.857 125.325C346.007 124.825 345.324 124.117 344.807 123.2C344.29 122.267 344.032 121.15 344.032 119.85ZM350.582 123.3C351.549 123.3 352.357 122.992 353.007 122.375C353.657 121.758 353.982 120.892 353.982 119.775V119.525C353.982 118.392 353.657 117.525 353.007 116.925C352.374 116.308 351.565 116 350.582 116C349.615 116 348.807 116.308 348.157 116.925C347.507 117.525 347.182 118.392 347.182 119.525V119.775C347.182 120.892 347.507 121.758 348.157 122.375C348.807 122.992 349.615 123.3 350.582 123.3ZM361.299 126.35C360.633 126.35 360.066 126.133 359.599 125.7C359.149 125.25 358.924 124.675 358.924 123.975C358.924 123.275 359.149 122.708 359.599 122.275C360.066 121.825 360.633 121.6 361.299 121.6C361.983 121.6 362.549 121.825 362.999 122.275C363.449 122.708 363.674 123.275 363.674 123.975C363.674 124.675 363.449 125.25 362.999 125.7C362.549 126.133 361.983 126.35 361.299 126.35ZM365.521 126V113.6H368.621V115.225H369.071C369.271 114.792 369.646 114.383 370.196 114C370.746 113.6 371.579 113.4 372.696 113.4C373.662 113.4 374.504 113.625 375.221 114.075C375.954 114.508 376.521 115.117 376.921 115.9C377.321 116.667 377.521 117.567 377.521 118.6V126H374.371V118.85C374.371 117.917 374.137 117.217 373.671 116.75C373.221 116.283 372.571 116.05 371.721 116.05C370.754 116.05 370.004 116.375 369.471 117.025C368.937 117.658 368.671 118.55 368.671 119.7V126H365.521ZM385.326 126.35C384.092 126.35 383.001 126.092 382.051 125.575C381.117 125.042 380.384 124.3 379.851 123.35C379.334 122.383 379.076 121.25 379.076 119.95V119.65C379.076 118.35 379.334 117.225 379.851 116.275C380.367 115.308 381.092 114.567 382.026 114.05C382.959 113.517 384.042 113.25 385.276 113.25C386.492 113.25 387.551 113.525 388.451 114.075C389.351 114.608 390.051 115.358 390.551 116.325C391.051 117.275 391.301 118.383 391.301 119.65V120.725H382.276C382.309 121.575 382.626 122.267 383.226 122.8C383.826 123.333 384.559 123.6 385.426 123.6C386.309 123.6 386.959 123.408 387.376 123.025C387.792 122.642 388.109 122.217 388.326 121.75L390.901 123.1C390.667 123.533 390.326 124.008 389.876 124.525C389.442 125.025 388.859 125.458 388.126 125.825C387.392 126.175 386.459 126.35 385.326 126.35ZM382.301 118.375H388.101C388.034 117.658 387.742 117.083 387.226 116.65C386.726 116.217 386.067 116 385.251 116C384.401 116 383.726 116.217 383.226 116.65C382.726 117.083 382.417 117.658 382.301 118.375ZM397.189 126C396.373 126 395.706 125.75 395.189 125.25C394.689 124.733 394.439 124.05 394.439 123.2V116.2H391.339V113.6H394.439V109.75H397.589V113.6H400.989V116.2H397.589V122.65C397.589 123.15 397.823 123.4 398.289 123.4H400.689V126H397.189Z" fill="white"/>
<path d="M140 70C140 108.66 108.66 140 70 140C31.3401 140 0 108.66 0 70C0 31.3401 31.3401 0 70 0C108.66 0 140 31.3401 140 70Z" fill="#FFD506"/>
<path d="M105.547 70.9483L59.1723 120.636C58.6808 121.16 58.0321 121.511 57.3241 121.634C56.616 121.758 55.887 121.647 55.2471 121.32C54.6071 120.993 54.091 120.466 53.7765 119.82C53.462 119.174 53.3663 118.443 53.5037 117.737L59.5739 87.3742L35.7115 78.4138C35.199 78.2221 34.742 77.9065 34.3813 77.4951C34.0206 77.0836 33.7674 76.5893 33.6443 76.0561C33.5213 75.523 33.5323 74.9677 33.6762 74.4398C33.8202 73.9119 34.0926 73.4279 34.4693 73.031L80.8443 23.3435C81.3357 22.8191 81.9844 22.4687 82.6925 22.3452C83.4005 22.2218 84.1296 22.332 84.7695 22.6592C85.4094 22.9864 85.9256 23.5129 86.2401 24.1591C86.5545 24.8054 86.6503 25.5365 86.5128 26.242L80.4261 56.6383L104.289 65.5862C104.797 65.7792 105.251 66.0945 105.608 66.5043C105.966 66.914 106.218 67.4057 106.341 67.9357C106.463 68.4658 106.454 69.0179 106.312 69.5433C106.171 70.0687 105.903 70.5513 105.531 70.9483H105.547Z" fill="black"/>
</svg>
